<svg id="Email" xmlns="http://www.w3.org/2000/svg" width="19.033" height="12.77" viewBox="0 0 19.033 12.77">
  <path id="Path_4" data-name="Path 4" d="M54.21,129.008c.5.282,7.483,4.338,7.743,4.484a2.154,2.154,0,0,0,1.873,0c.26-.146,7.241-4.2,7.743-4.484.187-.1.5-.287.571-.5.119-.37-.009-.511-.516-.511H54.156c-.507,0-.635.146-.516.511C53.708,128.725,54.023,128.906,54.21,129.008Z" transform="translate(-53.326 -128)" fill="#fff"/>
  <path id="Path_5" data-name="Path 5" d="M66.653,151.552c-.375.21-3.742,2.83-5.97,4.405l3.761,4.625c.091.1.133.22.082.28s-.174.025-.27-.07l-4.511-4.16c-.682.48-1.162.81-1.244.86a2.109,2.109,0,0,1-1.876,0c-.087-.05-.563-.38-1.244-.86l-4.511,4.16c-.092.1-.215.13-.27.07s-.014-.18.078-.28l3.756-4.625c-2.228-1.575-5.632-4.2-6.007-4.405-.4-.225-.425.04-.425.245v10.251a1.281,1.281,0,0,0,1.075,1.045H66.049a1.19,1.19,0,0,0,.984-1.045V151.8C67.032,151.587,67.06,151.327,66.653,151.552Z" transform="translate(-48 -150.323)" fill="#fff"/>
</svg>
