<svg xmlns="http://www.w3.org/2000/svg" width="24.109" height="21.698" viewBox="0 0 24.109 21.698">
  <path id="Home-Red" d="M14.055,3S6.6,9.437,2.43,12.923a1.255,1.255,0,0,0-.43.926,1.2,1.2,0,0,0,1.205,1.205H5.616v8.438A1.2,1.2,0,0,0,6.822,24.7h3.616a1.205,1.205,0,0,0,1.205-1.205V18.671h4.822v4.822A1.205,1.205,0,0,0,17.671,24.7h3.616a1.2,1.2,0,0,0,1.205-1.205V15.055H24.9a1.2,1.2,0,0,0,1.205-1.205,1.181,1.181,0,0,0-.462-.926C21.509,9.437,14.055,3,14.055,3Z" transform="translate(-2 -3)" fill="#dc332d"/>
</svg>
