<svg xmlns="http://www.w3.org/2000/svg" width="23.077" height="25" viewBox="0 0 23.077 25">
  <path id="Logout" d="M151.077,13.462a11.226,11.226,0,0,1-.916,4.477,11.4,11.4,0,0,1-6.145,6.145,11.394,11.394,0,0,1-8.954,0,11.4,11.4,0,0,1-6.145-6.145A11.226,11.226,0,0,1,128,13.462a11.428,11.428,0,0,1,4.612-9.21,1.9,1.9,0,0,1,1.435-.376,1.776,1.776,0,0,1,1.255.751,1.829,1.829,0,0,1,.368,1.42,1.871,1.871,0,0,1-.744,1.27,7.671,7.671,0,0,0-2.276,2.719,7.66,7.66,0,0,0-.2,6.408,7.618,7.618,0,0,0,4.1,4.1,7.613,7.613,0,0,0,5.965,0,7.618,7.618,0,0,0,4.1-4.1,7.66,7.66,0,0,0-.2-6.408,7.671,7.671,0,0,0-2.276-2.719,1.871,1.871,0,0,1-.744-1.27,1.828,1.828,0,0,1,.368-1.42,1.781,1.781,0,0,1,1.262-.751,1.865,1.865,0,0,1,1.427.376,11.428,11.428,0,0,1,4.612,9.21ZM141.462,1.923v9.615a1.923,1.923,0,0,1-3.846,0V1.923a1.848,1.848,0,0,1,.571-1.352,1.887,1.887,0,0,1,2.7,0A1.848,1.848,0,0,1,141.462,1.923Z" transform="translate(-128)" fill="#fff"/>
</svg>
