<svg xmlns="http://www.w3.org/2000/svg" width="24.202" height="28.941" viewBox="0 0 24.202 28.941">
  <g id="Notification" transform="translate(-0.794 -288.795)">
    <path id="path831" d="M3.436,291.586a2.751,2.751,0,0,0,.331,1.287,9.031,9.031,0,0,1,4.922-.007,2.752,2.752,0,0,0,.327-1.28,2.79,2.79,0,1,0-5.58,0Z" transform="translate(6.654 0)" fill="#c1c1c1"/>
    <path id="path833" d="M11.048,290.121A8.379,8.379,0,0,0,2.67,298.5a23.145,23.145,0,0,1-1.142,8.4H20.574a23.144,23.144,0,0,1-1.142-8.4,8.384,8.384,0,0,0-8.384-8.377Z" transform="translate(1.848 3.34)" fill="#c1c1c1"/>
    <path id="rect835" d="M3.59,295.148a2.794,2.794,0,1,0,0,5.587H22.207a2.794,2.794,0,0,0,0-5.587Z" transform="translate(0 17)" fill="#c1c1c1"/>
  </g>
</svg>
