<svg xmlns="http://www.w3.org/2000/svg" width="12.138" height="15.931" viewBox="0 0 12.138 15.931">
  <g id="Password" transform="translate(0 -0.5)" opacity="0.3">
    <g id="Core" transform="translate(0 0.5)">
      <g id="https" transform="translate(0 0)">
        <path id="Shape" d="M10.621,5.31H9.862V3.793A3.756,3.756,0,0,0,6.069,0,3.756,3.756,0,0,0,2.276,3.793V5.31H1.517A1.522,1.522,0,0,0,0,6.828v7.586a1.522,1.522,0,0,0,1.517,1.517h9.1a1.522,1.522,0,0,0,1.517-1.517V6.828A1.522,1.522,0,0,0,10.621,5.31ZM6.069,12.138a1.517,1.517,0,1,1,1.517-1.517,1.522,1.522,0,0,1-1.517,1.517ZM8.421,5.31h-4.7V3.793a2.352,2.352,0,1,1,4.7,0V5.31Z" fill-rule="evenodd"/>
      </g>
    </g>
  </g>
</svg>
