<svg xmlns="http://www.w3.org/2000/svg" width="23.218" height="27.684" viewBox="0 0 23.218 27.684">
  <g id="PDF" transform="translate(-86.396 -53.191)">
    <g id="Group_2" data-name="Group 2" transform="translate(86.396 53.191)">
      <path id="Path_10" data-name="Path 10" d="M367.269,53.245l4.031,4.044-.016.015-3.981,0-.037-4.059Z" transform="translate(-348.097 -53.241)" fill="#f1f1f1"/>
      <path id="Path_11" data-name="Path 11" d="M190.471,132.848a1,1,0,0,1-1.086,1.125,1.348,1.348,0,0,1-.252-.014v-2.1a1.511,1.511,0,0,1,.329-.029A.921.921,0,0,1,190.471,132.848Z" transform="translate(-182.12 -126.461)" fill="#f1f1f1"/>
      <path id="Path_12" data-name="Path 12" d="M149.295,132.169c0,.329-.238.525-.624.525a1.12,1.12,0,0,1-.243-.019v-.948a1.253,1.253,0,0,1,.3-.028C149.09,131.7,149.295,131.874,149.295,132.169Z" transform="translate(-144.194 -126.34)" fill="#f1f1f1"/>
      <path id="Path_13" data-name="Path 13" d="M89.075,94.625h12.5v7.219H86.4V94.625h2.679Z" transform="translate(-86.396 -91.797)" fill="#f1f1f1"/>
      <path id="Path_14" data-name="Path 14" d="M267.993,243.354a9.779,9.779,0,0,1-.47,2.212,4.025,4.025,0,0,1-.5-1.968c0-.862.278-1.1.5-1.1S267.984,242.605,267.993,243.354Z" transform="translate(-254.699 -229.581)" fill="#dc1d00"/>
      <path id="Path_15" data-name="Path 15" d="M318.1,342.52c0,.99-1.793.586-2.9-.464C315.2,342.057,318.1,341.531,318.1,342.52Z" transform="translate(-299.584 -322.212)" fill="#dc1d00"/>
      <path id="Path_16" data-name="Path 16" d="M202.758,368.207c-.888-.531,1.863-2.168,2.36-2.22C205.118,365.987,203.688,368.763,202.758,368.207Z" transform="translate(-194.653 -344.639)" fill="#dc1d00"/>
      <path id="Path_17" data-name="Path 17" d="M265.321,311.26a12.905,12.905,0,0,0,1.506,2.046,11.741,11.741,0,0,0-1.274.261,6.872,6.872,0,0,0-1.338.444l.365-.819C264.947,312.374,265.321,311.26,265.321,311.26Z" transform="translate(-252.079 -293.647)" fill="#dc1d00"/>
      <path id="Path_18" data-name="Path 18" d="M146.189,57.253V80.875H125.65V63.237h12.5V56.019h-12.5V53.191h16.49l0,0,0,0,.037,4.059,3.981,0,.016-.015Z" transform="translate(-122.971 -53.191)" fill="#dc1d00"/>
      <path id="Path_19" data-name="Path 19" d="M200.075,246.407c-.5.052-3.248,1.689-2.36,2.22C198.645,249.182,200.075,246.407,200.075,246.407Zm5.151-1.5c1.1,1.05,2.9,1.453,2.9.464S205.226,244.9,205.226,244.9Zm-.868-.186a12.9,12.9,0,0,1-1.506-2.046s-.374,1.114-.74,1.933l-.365.819a6.878,6.878,0,0,1,1.338-.444A11.746,11.746,0,0,1,204.358,244.717Zm-1.924-3.674a9.784,9.784,0,0,0,.47-2.212c-.009-.749-.252-.853-.47-.853s-.5.235-.5,1.1A4.025,4.025,0,0,0,202.434,241.043Zm.6,1.132a11.378,11.378,0,0,0,1.828,2.411,12.908,12.908,0,0,1,2.228-.156c1.794-.043,1.872.966,1.88,1.053s.079.889-1.349.941a4.88,4.88,0,0,1-2.908-1.436s-.609.1-1.113.217-2.125.566-2.125.566a20.521,20.521,0,0,1-1.541,2.263c-1.063,1.393-2.253,1.289-2.592.827-.394-.536-.09-1.071.659-1.767a8.741,8.741,0,0,1,2.476-1.274s.348-.627.859-1.822.9-2.4.9-2.4a8.454,8.454,0,0,1-.6-2.124c-.11-1.089.012-1.82.848-1.829s1.1.618,1.123,1.706A10.691,10.691,0,0,1,203.035,242.175Z" transform="translate(-189.61 -225.058)" fill="#fff"/>
      <g id="Group_1" data-name="Group 1" transform="translate(3.454 4.81)">
        <path id="Path_20" data-name="Path 20" d="M228.911,124.614V124H227v3.208h.683v-1.3h1.16v-.546h-1.16v-.751Z" transform="translate(-220.857 -123.977)" fill="#a51600"/>
        <path id="Path_21" data-name="Path 21" d="M180.327,124a2.112,2.112,0,0,0-1.33-.343,6.724,6.724,0,0,0-1,.067v3.154a6.886,6.886,0,0,0,.84.048,2.327,2.327,0,0,0,1.489-.414,1.631,1.631,0,0,0,.537-1.3A1.418,1.418,0,0,0,180.327,124Zm-1.354,2.358a2.353,2.353,0,0,1-.291-.014v-2.1a2.807,2.807,0,0,1,.368-.029.921.921,0,0,1,1.01,1.02A1,1,0,0,1,178.973,126.362Z" transform="translate(-175.202 -123.661)" fill="#a51600"/>
        <path id="Path_22" data-name="Path 22" d="M139.023,123.919a1.635,1.635,0,0,0-1.012-.257,6.213,6.213,0,0,0-1.012.067v3.164h.751v-1.144a2.046,2.046,0,0,0,.262.015,1.508,1.508,0,0,0,1.051-.339,1.028,1.028,0,0,0,.3-.762A.937.937,0,0,0,139.023,123.919Zm-1.015,1.287a1.314,1.314,0,0,1-.258-.019v-.948a1.522,1.522,0,0,1,.314-.028c.362,0,.567.176.567.471C138.632,125.01,138.394,125.206,138.009,125.206Z" transform="translate(-137 -123.662)" fill="#a51600"/>
      </g>
    </g>
  </g>
</svg>
