<svg id="Phone" xmlns="http://www.w3.org/2000/svg" width="22.812" height="22.812" viewBox="0 0 22.812 22.812">
  <path id="Path_6" data-name="Path 6" d="M0,0H22.812V22.812H0Z" fill="none"/>
  <path id="Path_7" data-name="Path 7" d="M9.446,13.409a14.314,14.314,0,0,0,6.264,6.259l2.091-2.1a.954.954,0,0,1,.965-.233,10.82,10.82,0,0,0,3.393.542.947.947,0,0,1,.95.95v3.327a.947.947,0,0,1-.95.95A16.157,16.157,0,0,1,6,6.95.95.95,0,0,1,6.95,6h3.327a.947.947,0,0,1,.95.95,10.82,10.82,0,0,0,.542,3.393.954.954,0,0,1-.233.965Z" transform="translate(-3.149 -3.149)" fill="#fff"/>
</svg>
