<svg xmlns="http://www.w3.org/2000/svg" width="26.055" height="28" viewBox="0 0 26.055 28">
  <path id="Settings" d="M27.526,18.036l-.526-.3a2,2,0,0,1,0-3.464l.526-.3a3,3,0,0,0,1.1-4.1l-1-1.732a3,3,0,0,0-4.1-1.1l-.526.3a2,2,0,0,1-3-1.732V5a3,3,0,0,0-3-3H15a3,3,0,0,0-3,3v.608A2,2,0,0,1,9,7.34l-.526-.3a3,3,0,0,0-4.1,1.1l-1,1.732a3,3,0,0,0,1.1,4.1l.527.3a2,2,0,0,1,0,3.464l-.526.3a3,3,0,0,0-1.1,4.1l1,1.732a3,3,0,0,0,4.1,1.1l.526-.3a2,2,0,0,1,3,1.732V27a3,3,0,0,0,3,3h2a3,3,0,0,0,3-3v-.608a2,2,0,0,1,3-1.732l.526.3a3,3,0,0,0,4.1-1.1l1-1.732A3,3,0,0,0,27.526,18.036ZM16,21a5,5,0,1,1,5-5A5.006,5.006,0,0,1,16,21Z" transform="translate(-2.972 -2)" fill="#c1c1c1"/>
</svg>
