<svg xmlns="http://www.w3.org/2000/svg" width="23.37" height="29.723" viewBox="0 0 23.37 29.723">
  <g id="Track-Red" transform="translate(-13.13 -8)">
    <path id="Path_2" data-name="Path 2" d="M24.815,8A11.685,11.685,0,0,0,13.13,19.685c0,7.672,9.5,18.038,11.685,18.038S36.5,27.648,36.5,19.685A11.685,11.685,0,0,0,24.815,8Zm-.056,20.434a8.322,8.322,0,1,1,8.322-8.322A8.322,8.322,0,0,1,24.759,28.434Zm0,0" fill="#dc332d"/>
    <path id="Path_3" data-name="Path 3" d="M27.8,16.73h0a.322.322,0,0,0-.272.483,3.226,3.226,0,0,1,.464,1.6,3.313,3.313,0,0,1-3.232,3.338,3.251,3.251,0,0,1-2.6-1.288.328.328,0,0,0-.557.08,6.613,6.613,0,0,0-.471,2.805A6.712,6.712,0,1,0,27.8,16.73Zm0,0" transform="translate(-3.045 -3.324)" fill="#dc332d"/>
  </g>
</svg>
