<svg xmlns="http://www.w3.org/2000/svg" width="76.162" height="60.352" viewBox="0 0 76.162 60.352">
  <g id="Upload_icon" data-name="Upload icon" transform="translate(-57.895 -65.686)" opacity="0.25">
    <path id="Path_27" data-name="Path 27" d="M114.937,114.484H104.321a2.856,2.856,0,0,1,0-5.712h10.616a13.351,13.351,0,1,0,0-26.7c-.36,0-.742.018-1.169.056a2.856,2.856,0,0,1-2.713-1.413A18.69,18.69,0,0,0,76.466,86.92a2.856,2.856,0,0,1-2.922,2.374h-.2a9.742,9.742,0,1,0-.006,19.478H87.56a2.856,2.856,0,1,1,0,5.712H73.336a15.455,15.455,0,0,1-2.01-30.777,24.4,24.4,0,0,1,43.725-7.347,19.063,19.063,0,1,1-.114,38.125Z"/>
    <path id="Path_28" data-name="Path 28" d="M216.183,202.823a2.844,2.844,0,0,1-2.018-.838l-7.155-7.153-7.153,7.153a2.856,2.856,0,0,1-4.03-4.038L205,188.774a2.856,2.856,0,0,1,4.038,0l9.173,9.173a2.856,2.856,0,0,1-2.02,4.876Z" transform="translate(-111.068 -98.978)"/>
    <path id="Path_29" data-name="Path 29" d="M245.6,225.017a2.856,2.856,0,0,1-2.856-2.856V190.8a2.856,2.856,0,1,1,5.712,0v31.366A2.856,2.856,0,0,1,245.6,225.017Z" transform="translate(-149.654 -98.979)"/>
  </g>
</svg>
