<svg xmlns="http://www.w3.org/2000/svg" width="16.237" height="16.211" viewBox="0 0 16.237 16.211">
  <g id="User-Dark" transform="translate(-1.984 -2)">
    <g id="user" transform="translate(1.984 2)">
      <ellipse id="Ellipse_1" data-name="Ellipse 1" cx="4.053" cy="4.863" rx="4.053" ry="4.863" transform="translate(4.066)"/>
      <path id="Path_1" data-name="Path 1" d="M18.046,18.278a7.387,7.387,0,0,0-3.891-3.4,1.815,1.815,0,0,0-1.459.081,4.976,4.976,0,0,1-5.187,0,1.824,1.824,0,0,0-1.459,0,7.387,7.387,0,0,0-3.891,3.4,1.6,1.6,0,0,0,1.54,2.27H16.506A1.642,1.642,0,0,0,18.046,18.278Z" transform="translate(-1.984 -4.418)"/>
    </g>
  </g>
</svg>
